<svg height="512" viewBox="0 0 64 64" width="512" xmlns="http://www.w3.org/2000/svg"><g id="Icons"><g><g><g><g><g><path d="m50 60h-36c-2.209 0-4-1.791-4-4v-46-2c0-2.209 1.791-4 4-4h36c2.209 0 4 1.791 4 4v48c0 2.209-1.791 4-4 4z" fill="#fab400"/></g></g></g></g><g><g><g><g><path d="m50 46h-36c-1.105 0-2 .895-2 2v8c0 1.105.895 2 2 2h36c1.105 0 2-.895 2-2v-8c0-1.105-.895-2-2-2z" fill="#00a0c8"/></g></g></g></g><g><g><g><g><path d="m50 4h-36c-2.209 0-4 1.791-4 4v20h44v-20c0-2.209-1.791-4-4-4z" fill="#0a5078"/></g></g></g></g><g><g><g><g><path d="m28 24h-12c-1.105 0-2-.895-2-2v-12c0-1.105.895-2 2-2h12c1.105 0 2 .895 2 2v12c0 1.105-.895 2-2 2z" fill="#00a0c8"/></g></g></g></g><g><g><g><g><path d="m48 24h-12c-1.105 0-2-.895-2-2v-12c0-1.105.895-2 2-2h12c1.105 0 2 .895 2 2v12c0 1.105-.895 2-2 2z" fill="#00a0c8"/></g></g></g></g><g><g><g><g><path d="m28 8h-12c-1.105 0-2 .895-2 2v1c0-1.105.895-2 2-2h12c1.105 0 2 .895 2 2v-1c0-1.105-.895-2-2-2z" fill="#0082aa"/></g></g></g></g><g><g><g><g><path d="m48 8h-12c-1.105 0-2 .895-2 2v1c0-1.105.895-2 2-2h12c1.105 0 2 .895 2 2v-1c0-1.105-.895-2-2-2z" fill="#0082aa"/></g></g></g></g><g><g><g><g><path d="m27.66 15.34c-.255 0-.51-.097-.705-.291-1.33-1.321-3.091-2.049-4.955-2.049s-3.625.728-4.955 2.049c-.393.389-1.024.387-1.415-.005-.389-.392-.387-1.025.005-1.414 1.709-1.696 3.969-2.63 6.365-2.63s4.656.934 6.365 2.63c.392.389.394 1.022.005 1.414-.196.197-.453.296-.71.296z" fill="#0a5078"/></g></g></g></g><g><g><g><g><path d="m47.66 15.34c-.255 0-.51-.097-.705-.291-1.33-1.321-3.091-2.049-4.955-2.049s-3.625.728-4.955 2.049c-.393.389-1.024.387-1.415-.005-.389-.392-.387-1.025.005-1.414 1.709-1.696 3.969-2.63 6.365-2.63s4.656.934 6.365 2.63c.392.389.394 1.022.005 1.414-.196.197-.453.296-.71.296z" fill="#0a5078"/></g></g></g></g><g><g><g><g><g><path d="m22 20c-.741 0-1.425.215-2.02.566l-3.273-3.273c-.391-.391-1.023-.391-1.414 0s-.391 1.023 0 1.414l3.273 3.273c-.351.595-.566 1.279-.566 2.02h8c0-2.209-1.791-4-4-4z" fill="#c80a50"/></g></g></g></g><g><g><g><g><path d="m48.707 17.293c-.391-.391-1.023-.391-1.414 0l-3.273 3.273c-.595-.351-1.279-.566-2.02-.566-2.209 0-4 1.791-4 4h8c0-.741-.215-1.425-.566-2.02l3.273-3.273c.391-.391.391-1.023 0-1.414z" fill="#c80a50"/></g></g></g></g></g><g><g><g><g><circle cx="17" cy="37" fill="#be7800" r="4"/></g></g></g></g><g><g><g><g><circle cx="27" cy="37" fill="#be7800" r="4"/></g></g></g></g><g><g><g><g><circle cx="37" cy="37" fill="#be7800" r="4"/></g></g></g></g><g><g><g><g><circle cx="47" cy="37" fill="#be7800" r="4"/></g></g></g></g><g><g><g><g><circle cx="17" cy="37" fill="#f0f0f0" r="3"/></g></g></g></g><g><g><g><g><circle cx="27" cy="37" fill="#f0f0f0" r="3"/></g></g></g></g><g><g><g><g><circle cx="37" cy="37" fill="#f0f0f0" r="3"/></g></g></g></g><g><g><g><g><circle cx="47" cy="37" fill="#f0f0f0" r="3"/></g></g></g></g><g><g><g><g><circle cx="27" cy="53" fill="#0082aa" r="3"/></g></g></g></g><g><g><g><g><circle cx="37" cy="53" fill="#0082aa" r="3"/></g></g></g></g><g><g><g><g><circle cx="47" cy="53" fill="#0082aa" r="3"/></g></g></g></g><g><g><g><g><circle cx="27" cy="52" fill="#00325a" r="3"/></g></g></g></g><g><g><g><g><circle cx="37" cy="52" fill="#fab400" r="3"/></g></g></g></g><g><g><g><g><circle cx="37" cy="52" fill="#00143c" r="1"/></g></g></g></g><g><g><g><g><circle cx="47" cy="52" fill="#c80a50" r="3"/></g></g></g></g><g><g><g><g><path d="m19 56h-4c-.552 0-1-.448-1-1v-4c0-.552.448-1 1-1h4c.552 0 1 .448 1 1v4c0 .552-.448 1-1 1z" fill="#0082aa"/></g></g></g></g><g><g><g><g><path d="m19 55h-4c-.552 0-1-.448-1-1v-4c0-.552.448-1 1-1h4c.552 0 1 .448 1 1v4c0 .552-.448 1-1 1z" fill="#c80a50"/></g></g></g></g><g><g><g><g><circle cx="47" cy="52" fill="#00143c" r="1"/></g></g></g></g><g><g><g><g><circle cx="27" cy="52" fill="#00143c" r="1"/></g></g></g></g><g><g><g><g><path d="m17 36c.552 0 1-.448 1-1v-.816c-.314-.112-.647-.184-1-.184s-.686.072-1 .184v.816c0 .552.448 1 1 1z" fill="#d2d2d2"/></g></g></g></g><g><g><g><g><path d="m27 36c.552 0 1-.448 1-1v-.816c-.314-.112-.647-.184-1-.184s-.686.072-1 .184v.816c0 .552.448 1 1 1z" fill="#d2d2d2"/></g></g></g></g><g><g><g><g><path d="m37 36c.552 0 1-.448 1-1v-.816c-.314-.112-.647-.184-1-.184s-.686.072-1 .184v.816c0 .552.448 1 1 1z" fill="#d2d2d2"/></g></g></g></g><g><g><g><g><path d="m47 36c.552 0 1-.448 1-1v-.816c-.314-.112-.647-.184-1-.184s-.686.072-1 .184v.816c0 .552.448 1 1 1z" fill="#d2d2d2"/></g></g></g></g></g></g></svg>