<svg height="512" viewBox="0 0 512 512" width="512" xmlns="http://www.w3.org/2000/svg"><g id="filled_outline" data-name="filled outline"><path d="m288 288v32l69.711 27.885a80 80 0 0 1 50.289 74.278v65.837h-304v-65.837a80 80 0 0 1 50.289-74.278l69.711-27.885v-32z" fill="#92d1f7"/><path d="m360 352v136h-208v-136l2.67-4.27 50.51-20.2 2.82 8.47 16 48 32 24 32-24 16-48 2.82-8.47 50.51 20.2z" fill="#92d1f7"/><path d="m288 320-32 24-32-24v-32h64z" fill="#fdc9a6"/><g fill="#e6af89"><path d="m288 288v8.51a72.1 72.1 0 0 1 -64 0v-8.51z"/><path d="m160 152h24a0 0 0 0 1 0 0v40a0 0 0 0 1 0 0h-12a12 12 0 0 1 -12-12v-28a0 0 0 0 1 0 0z"/><path d="m340 152h12a0 0 0 0 1 0 0v40a0 0 0 0 1 0 0h-24a0 0 0 0 1 0 0v-28a12 12 0 0 1 12-12z" transform="matrix(-1 0 0 -1 680 344)"/></g><path d="m184 152h144a0 0 0 0 1 0 0v72a72 72 0 0 1 -72 72 72 72 0 0 1 -72-72v-72a0 0 0 0 1 0 0z" fill="#fdc9a6"/><circle cx="218" cy="177" fill="#533222" r="10"/><circle cx="294" cy="179" fill="#533222" r="10"/><path d="m264 218h-1.365a22.661 22.661 0 0 1 -22.635-22.635v-17.365a8 8 0 0 1 16 0v17.365a6.643 6.643 0 0 0 6.635 6.635h1.365a8 8 0 0 1 0 16z" fill="#e6af89"/><path d="m352 152h-192l10.864-52.839a80 80 0 0 1 78.361-63.888h13.55a80 80 0 0 1 78.361 63.888z" fill="#ea9d2d"/><path d="m296 120h-80l14.886-89.315a8 8 0 0 1 7.891-6.685h34.446a8 8 0 0 1 7.891 6.685z" fill="#fbb540"/><path d="m170 120h172a10 10 0 0 1 10 10v22a0 0 0 0 1 0 0h-192a0 0 0 0 1 0 0v-22a10 10 0 0 1 10-10z" fill="#fbb540"/><path d="m357.33 347.73-50.51-20.2-2.82 8.47-16 48-32 24-32-24-16-48-2.82-8.47-50.51 20.2-2.67 4.27v136h104 104v-136z" fill="#dc651e"/><path d="m256 408v80h-104v-136l2.67-4.27 50.51-20.2 2.82 8.47 16 48z" fill="#fd7422"/><path d="m152 424h104v32h-104z" fill="#fbb540"/><path d="m256 424h104v32h-104z" fill="#ea9d2d"/><path d="m448 240v62.059a24 24 0 0 1 -7.029 16.97 24 24 0 0 1 -33.942 0 24 24 0 0 1 -7.029-16.97v-62.059l-40 32v64l32 32v120h64v-120l32-32v-64z" fill="#eaeae8"/><path d="m416 488v-104a8 8 0 0 1 16 0v104z" fill="#cbcbcb"/><path d="m234.427 214.315-3.957.791a18 18 0 0 0 -14.47 17.65v15.244h80v-15.244a18 18 0 0 0 -14.47-17.65l-3.957-.791a109.971 109.971 0 0 0 -43.146 0z" fill="#533222"/><path d="m304 248v-15.244a26.071 26.071 0 0 0 -20.9-25.5l-3.957-.791q-4.426-.885-8.872-1.428a7.978 7.978 0 0 0 -6.271-3.037h-1.365a6.643 6.643 0 0 1 -6.635-6.635v-17.365a8 8 0 0 0 -16 0v17.365a22.5 22.5 0 0 0 2.156 9.629q-4.659.555-9.3 1.476l-3.957.791a26.071 26.071 0 0 0 -20.9 25.5v15.239a8 8 0 0 0 8 8h80a8 8 0 0 0 8.001-8zm-16-8h-64v-7.244a10.026 10.026 0 0 1 8.039-9.805l3.957-.792a101.475 101.475 0 0 1 40.008 0l3.957.792a10.026 10.026 0 0 1 8.039 9.805z"/><circle cx="218" cy="177" r="10"/><circle cx="294" cy="179" r="10"/><path d="m493 265.753-40-32a8 8 0 0 0 -13 6.247v62.059a16 16 0 0 1 -32 0v-62.059a8 8 0 0 0 -13-6.247l-40 32a8 8 0 0 0 -3 6.247v64.984l-56-22.4v-21.347a80.026 80.026 0 0 0 40-69.237v-24h4a20.023 20.023 0 0 0 20-20v-50a17.967 17.967 0 0 0 -7.33-14.463l-3.7-17.987a87.474 87.474 0 0 0 -59.63-66.173l-.334-2.007a15.95 15.95 0 0 0 -15.783-13.37h-34.446a15.95 15.95 0 0 0 -15.783 13.37l-.334 2.007a87.474 87.474 0 0 0 -59.632 66.173l-3.7 17.987a17.967 17.967 0 0 0 -7.328 14.463v50a20.023 20.023 0 0 0 20 20h4v24a80.026 80.026 0 0 0 40 69.237v21.346l-64.682 25.874a87.579 87.579 0 0 0 -55.318 81.706v65.837a8 8 0 0 0 8 8h352a8 8 0 0 0 8-8v-115.681l28.39-18.631a8 8 0 0 0 3.61-6.688v-75a8 8 0 0 0 -3-6.247zm-109 214.247h-16v-118.181l16 10.5zm-224-125.784 40.291-16.116c.039.143.072.287.119.43l16 48a8 8 0 0 0 2.79 3.87l28.8 21.6v4h-88zm104 57.784 28.8-21.6a8 8 0 0 0 2.79-3.87l16-48c.047-.143.08-.287.119-.43l40.291 16.116v61.784h-88zm-104 20h88v16h-88zm104 0h88v16h-88zm-96-288v-14a2 2 0 0 1 2-2h172a2 2 0 0 1 2 2v14zm176 36a4 4 0 0 1 -4 4h-4v-24h8zm-10.7-79.228 2.308 11.228h-32.83l-10.4-62.379a71.547 71.547 0 0 1 40.922 51.151zm-60.077-68.772 13.333 80h-61.112l13.333-80zm-53.6 17.621-10.401 62.379h-32.83l2.308-11.228a71.547 71.547 0 0 1 40.919-51.151zm-47.623 134.379a4 4 0 0 1 -4-4v-20h8v24zm20 40v-64h128v64a64 64 0 0 1 -128 0zm64 80a79.71 79.71 0 0 0 24-3.683v15.683l-24 18-24-18v-15.683a79.71 79.71 0 0 0 24 3.683zm-33.2 25.1 28.4 21.3a8 8 0 0 0 9.6 0l28.4-21.3 7.764 3.106c-.216.4-15.766 46.9-15.766 46.9l-25.198 18.894-25.2-18.9s-15.55-46.5-15.766-46.9zm-110.8 93.063a71.6 71.6 0 0 1 32-59.884v117.721h-32zm48 41.837h88v16h-88zm104 16v-16h88v16zm216-137.319-28.39 18.631a8 8 0 0 0 -3.61 6.688v112h-16v-96a8 8 0 0 0 -16 0v96h-16v-112a8 8 0 0 0 -3.61-6.688l-28.39-18.631v-66.836l24-19.2v45.414a32 32 0 1 0 64 0v-45.414l24 19.2z"/></g></svg>